<svg width="32" height="32" viewBox="0 0 32 32" fill="none" xmlns="http://www.w3.org/2000/svg">
<g clip-path="url(#clip0_30_435)">
<path d="M15.192 4.992C16.2587 4.992 17.0693 5.12 17.624 5.376C18.1787 5.61067 18.6693 5.87733 19.096 6.176C19.352 6.32533 19.5547 6.44267 19.704 6.528C19.8747 6.592 20.0347 6.624 20.184 6.624C20.3973 6.624 20.5467 6.50667 20.632 6.272C20.7387 6.03733 20.824 5.68533 20.888 5.216H21.624C21.6027 5.57867 21.5707 6.016 21.528 6.528C21.5067 7.01867 21.4853 7.68 21.464 8.512C21.464 9.32267 21.464 10.4 21.464 11.744H20.728C20.664 10.72 20.44 9.73867 20.056 8.8C19.672 7.86133 19.1067 7.09333 18.36 6.496C17.6347 5.89867 16.6747 5.6 15.48 5.6C14.3493 5.6 13.4107 5.94133 12.664 6.624C11.9387 7.30667 11.576 8.20267 11.576 9.312C11.576 10.272 11.8213 11.0827 12.312 11.744C12.8027 12.384 13.4533 12.9707 14.264 13.504C15.096 14.016 15.992 14.5707 16.952 15.168C18.0613 15.8507 19.0427 16.5333 19.896 17.216C20.7707 17.8773 21.4533 18.6133 21.944 19.424C22.456 20.2347 22.712 21.216 22.712 22.368C22.712 23.7333 22.4027 24.864 21.784 25.76C21.1653 26.656 20.344 27.328 19.32 27.776C18.296 28.224 17.1653 28.448 15.928 28.448C14.7973 28.448 13.9013 28.32 13.24 28.064C12.5787 27.808 12.0133 27.5413 11.544 27.264C11.0747 26.9653 10.712 26.816 10.456 26.816C10.2427 26.816 10.0827 26.9333 9.976 27.168C9.89067 27.4027 9.816 27.7547 9.752 28.224H9.016C9.05867 27.776 9.08 27.2533 9.08 26.656C9.10133 26.0373 9.112 25.2373 9.112 24.256C9.13333 23.2747 9.144 22.0373 9.144 20.544H9.88C9.96533 21.824 10.2 23.0187 10.584 24.128C10.9893 25.2373 11.5973 26.1333 12.408 26.816C13.24 27.4773 14.3387 27.808 15.704 27.808C16.408 27.808 17.0693 27.6693 17.688 27.392C18.328 27.0933 18.8507 26.6347 19.256 26.016C19.6613 25.376 19.864 24.5547 19.864 23.552C19.864 22.6773 19.6507 21.92 19.224 21.28C18.8187 20.6187 18.2427 20.0107 17.496 19.456C16.7493 18.88 15.8747 18.2933 14.872 17.696C13.8693 17.0773 12.9307 16.448 12.056 15.808C11.1813 15.168 10.4773 14.432 9.944 13.6C9.432 12.7467 9.176 11.7227 9.176 10.528C9.176 9.26933 9.45333 8.23467 10.008 7.424C10.584 6.592 11.3307 5.984 12.248 5.6C13.1653 5.19467 14.1467 4.992 15.192 4.992Z" fill="url(#paint0_linear_30_435)"/>
</g>
<defs>
<linearGradient id="paint0_linear_30_435" x1="16" y1="-5" x2="16" y2="35" gradientUnits="userSpaceOnUse">
<stop stop-color="#C82CFF"/>
<stop offset="1" stop-color="#9100C3"/>
</linearGradient>
<clipPath id="clip0_30_435">
<rect width="32" height="32" fill="white"/>
</clipPath>
</defs>
</svg>
