<svg width="32" height="32" viewBox="0 0 32 32" fill="none" xmlns="http://www.w3.org/2000/svg">
<g clip-path="url(#clip0_122_4)">
<path d="M29.7487 11.4645L20.6777 2.3934C18.1728 -0.111508 14.1115 -0.111508 11.6066 2.3934L2.53553 11.4645C0.0306271 13.9694 0.0306277 18.0306 2.53553 20.5355L11.6066 29.6066C14.1115 32.1115 18.1728 32.1115 20.6777 29.6066L29.7487 20.5355C32.2536 18.0306 32.2536 13.9694 29.7487 11.4645Z" fill="url(#paint0_linear_122_4)"/>
<path d="M16.3 8.6C17.0067 8.6 17.5467 8.68 17.92 8.84C18.2933 9 18.62 9.17333 18.9 9.36C19.06 9.45333 19.1867 9.52667 19.28 9.58C19.3867 9.62 19.4867 9.64 19.58 9.64C19.7133 9.64 19.8067 9.56667 19.86 9.42C19.9267 9.27333 19.98 9.05333 20.02 8.76H20.48C20.4667 9 20.4467 9.28667 20.42 9.62C20.4067 9.94 20.3933 10.3667 20.38 10.9C20.38 11.4333 20.38 12.1333 20.38 13H19.92C19.88 12.3467 19.7333 11.7133 19.48 11.1C19.24 10.4867 18.88 9.98667 18.4 9.6C17.9333 9.21333 17.3333 9.02 16.6 9.02C15.92 9.02 15.3533 9.22667 14.9 9.64C14.46 10.04 14.24 10.5733 14.24 11.24C14.24 11.8267 14.3867 12.32 14.68 12.72C14.9733 13.1067 15.3733 13.4733 15.88 13.82C16.4 14.1533 16.9867 14.5267 17.64 14.94C18.3067 15.3667 18.9067 15.7933 19.44 16.22C19.9733 16.6333 20.3933 17.0933 20.7 17.6C21.0067 18.1067 21.16 18.72 21.16 19.44C21.16 20.3067 20.9533 21.0267 20.54 21.6C20.14 22.16 19.6 22.58 18.92 22.86C18.24 23.14 17.4933 23.28 16.68 23.28C15.9333 23.28 15.34 23.2 14.9 23.04C14.46 22.88 14.0867 22.7133 13.78 22.54C13.4867 22.3533 13.26 22.26 13.1 22.26C12.9667 22.26 12.8667 22.3333 12.8 22.48C12.7467 22.6267 12.7 22.8467 12.66 23.14H12.2C12.2267 22.8467 12.24 22.5067 12.24 22.12C12.2533 21.72 12.26 21.2 12.26 20.56C12.2733 19.92 12.28 19.1133 12.28 18.14H12.74C12.7933 18.9667 12.94 19.74 13.18 20.46C13.4333 21.18 13.8133 21.76 14.32 22.2C14.84 22.6267 15.5267 22.84 16.38 22.84C16.8333 22.84 17.2533 22.7533 17.64 22.58C18.0267 22.4067 18.34 22.1333 18.58 21.76C18.82 21.3867 18.94 20.9067 18.94 20.32C18.94 19.7733 18.8067 19.2933 18.54 18.88C18.2867 18.4667 17.9267 18.0867 17.46 17.74C17.0067 17.38 16.4733 17.0133 15.86 16.64C15.2333 16.24 14.6467 15.84 14.1 15.44C13.5533 15.04 13.1133 14.5733 12.78 14.04C12.46 13.5067 12.3 12.8733 12.3 12.14C12.3 11.3267 12.4867 10.66 12.86 10.14C13.2467 9.62 13.74 9.23333 14.34 8.98C14.9533 8.72667 15.6067 8.6 16.3 8.6Z" fill="#180021"/>
</g>
<defs>
<linearGradient id="paint0_linear_122_4" x1="25.2132" y1="6.92893" x2="7.07107" y2="25.0711" gradientUnits="userSpaceOnUse">
<stop stop-color="#C82CFF"/>
<stop offset="1" stop-color="#9100C3"/>
</linearGradient>
<clipPath id="clip0_122_4">
<rect width="32" height="32" fill="white"/>
</clipPath>
</defs>
</svg>
