<svg width="32" height="32" viewBox="0 0 32 32" fill="none" xmlns="http://www.w3.org/2000/svg">
<g clip-path="url(#clip0_30_435)">
<rect width="32" height="32" rx="5" fill="url(#paint0_linear_30_435)"/>
<path d="M15.192 3.992C16.2587 3.992 17.0693 4.12 17.624 4.376C18.1787 4.61067 18.6693 4.87733 19.096 5.176C19.352 5.32533 19.5547 5.44267 19.704 5.528C19.8747 5.592 20.0347 5.624 20.184 5.624C20.3973 5.624 20.5467 5.50667 20.632 5.272C20.7387 5.03733 20.824 4.68533 20.888 4.216H21.624C21.6027 4.57867 21.5707 5.016 21.528 5.528C21.5067 6.01867 21.4853 6.68 21.464 7.512C21.464 8.32267 21.464 9.4 21.464 10.744H20.728C20.664 9.72 20.44 8.73867 20.056 7.8C19.672 6.86133 19.1067 6.09333 18.36 5.496C17.6347 4.89867 16.6747 4.6 15.48 4.6C14.3493 4.6 13.4107 4.94133 12.664 5.624C11.9387 6.30667 11.576 7.20267 11.576 8.312C11.576 9.272 11.8213 10.0827 12.312 10.744C12.8027 11.384 13.4533 11.9707 14.264 12.504C15.096 13.016 15.992 13.5707 16.952 14.168C18.0613 14.8507 19.0427 15.5333 19.896 16.216C20.7707 16.8773 21.4533 17.6133 21.944 18.424C22.456 19.2347 22.712 20.216 22.712 21.368C22.712 22.7333 22.4027 23.864 21.784 24.76C21.1653 25.656 20.344 26.328 19.32 26.776C18.296 27.224 17.1653 27.448 15.928 27.448C14.7973 27.448 13.9013 27.32 13.24 27.064C12.5787 26.808 12.0133 26.5413 11.544 26.264C11.0747 25.9653 10.712 25.816 10.456 25.816C10.2427 25.816 10.0827 25.9333 9.976 26.168C9.89067 26.4027 9.816 26.7547 9.752 27.224H9.016C9.05867 26.776 9.08 26.2533 9.08 25.656C9.10133 25.0373 9.112 24.2373 9.112 23.256C9.13333 22.2747 9.144 21.0373 9.144 19.544H9.88C9.96533 20.824 10.2 22.0187 10.584 23.128C10.9893 24.2373 11.5973 25.1333 12.408 25.816C13.24 26.4773 14.3387 26.808 15.704 26.808C16.408 26.808 17.0693 26.6693 17.688 26.392C18.328 26.0933 18.8507 25.6347 19.256 25.016C19.6613 24.376 19.864 23.5547 19.864 22.552C19.864 21.6773 19.6507 20.92 19.224 20.28C18.8187 19.6187 18.2427 19.0107 17.496 18.456C16.7493 17.88 15.8747 17.2933 14.872 16.696C13.8693 16.0773 12.9307 15.448 12.056 14.808C11.1813 14.168 10.4773 13.432 9.944 12.6C9.432 11.7467 9.176 10.7227 9.176 9.528C9.176 8.26933 9.45333 7.23467 10.008 6.424C10.584 5.592 11.3307 4.984 12.248 4.6C13.1653 4.19467 14.1467 3.992 15.192 3.992Z" fill="#180021"/>
</g>
<defs>
<linearGradient id="paint0_linear_30_435" x1="16" y1="0" x2="16" y2="32" gradientUnits="userSpaceOnUse">
<stop stop-color="#C82CFF"/>
<stop offset="1" stop-color="#9100C3"/>
</linearGradient>
<clipPath id="clip0_30_435">
<rect width="32" height="32" fill="white"/>
</clipPath>
</defs>
</svg>
