<svg width="20" height="20" viewBox="0 0 20 20" fill="none" xmlns="http://www.w3.org/2000/svg">
<path d="M10.8333 14.2083C11.4444 13.9166 12.0589 13.6979 12.677 13.5521C13.2951 13.4062 13.9305 13.3333 14.5833 13.3333C15.0833 13.3333 15.5728 13.375 16.052 13.4583C16.5312 13.5416 17.0138 13.6666 17.4999 13.8333V5.58331C17.0416 5.38887 16.5659 5.24304 16.0728 5.14581C15.5798 5.04859 15.0833 4.99998 14.5833 4.99998C13.9305 4.99998 13.2846 5.08331 12.6458 5.24998C12.0069 5.41665 11.4027 5.66665 10.8333 5.99998V14.2083ZM9.99992 16.2291C9.80547 16.2291 9.62145 16.2048 9.44784 16.1562C9.27422 16.1076 9.11103 16.0416 8.95825 15.9583C8.41659 15.6389 7.84714 15.3993 7.24992 15.2396C6.6527 15.0798 6.04159 15 5.41659 15C4.83325 15 4.26034 15.0764 3.69784 15.2291C3.13534 15.3819 2.59714 15.5972 2.08325 15.875C1.79159 16.0278 1.51034 16.0208 1.2395 15.8541C0.968669 15.6875 0.833252 15.4444 0.833252 15.125V5.08331C0.833252 4.93054 0.871446 4.7847 0.947835 4.64581C1.02422 4.50692 1.13881 4.40276 1.29159 4.33331C1.94436 4.01387 2.6145 3.76734 3.302 3.59373C3.9895 3.42012 4.69436 3.33331 5.41659 3.33331C6.22214 3.33331 7.01034 3.43748 7.78117 3.64581C8.552 3.85415 9.29159 4.16665 9.99992 4.58331C10.7083 4.16665 11.4478 3.85415 12.2187 3.64581C12.9895 3.43748 13.7777 3.33331 14.5833 3.33331C15.3055 3.33331 16.0103 3.42012 16.6978 3.59373C17.3853 3.76734 18.0555 4.01387 18.7083 4.33331C18.861 4.40276 18.9756 4.50692 19.052 4.64581C19.1284 4.7847 19.1666 4.93054 19.1666 5.08331V15.125C19.1666 15.4444 19.0312 15.6875 18.7603 15.8541C18.4895 16.0208 18.2083 16.0278 17.9166 15.875C17.4027 15.5972 16.8645 15.3819 16.302 15.2291C15.7395 15.0764 15.1666 15 14.5833 15C13.9583 15 13.3471 15.0798 12.7499 15.2396C12.1527 15.3993 11.5833 15.6389 11.0416 15.9583C10.8888 16.0416 10.7256 16.1076 10.552 16.1562C10.3784 16.2048 10.1944 16.2291 9.99992 16.2291ZM11.6666 7.31248C11.6666 7.18748 11.7117 7.05901 11.802 6.92706C11.8923 6.79512 11.993 6.70831 12.1041 6.66665C12.5069 6.52776 12.9096 6.42359 13.3124 6.35415C13.7152 6.2847 14.1388 6.24998 14.5833 6.24998C14.861 6.24998 15.1353 6.26734 15.4062 6.30206C15.677 6.33679 15.9444 6.38192 16.2083 6.43748C16.3333 6.46526 16.4409 6.5347 16.5312 6.64581C16.6214 6.75692 16.6666 6.88192 16.6666 7.02081C16.6666 7.25692 16.5902 7.43054 16.4374 7.54165C16.2846 7.65276 16.0902 7.68054 15.8541 7.62498C15.6596 7.58331 15.4548 7.55206 15.2395 7.53123C15.0242 7.5104 14.8055 7.49998 14.5833 7.49998C14.2221 7.49998 13.868 7.5347 13.5208 7.60415C13.1735 7.67359 12.8402 7.76387 12.5208 7.87498C12.2708 7.9722 12.0659 7.96526 11.9062 7.85415C11.7464 7.74304 11.6666 7.56248 11.6666 7.31248ZM11.6666 11.8958C11.6666 11.7708 11.7117 11.6423 11.802 11.5104C11.8923 11.3785 11.993 11.2916 12.1041 11.25C12.5069 11.1111 12.9096 11.0069 13.3124 10.9375C13.7152 10.868 14.1388 10.8333 14.5833 10.8333C14.861 10.8333 15.1353 10.8507 15.4062 10.8854C15.677 10.9201 15.9444 10.9653 16.2083 11.0208C16.3333 11.0486 16.4409 11.118 16.5312 11.2291C16.6214 11.3403 16.6666 11.4653 16.6666 11.6041C16.6666 11.8403 16.5902 12.0139 16.4374 12.125C16.2846 12.2361 16.0902 12.2639 15.8541 12.2083C15.6596 12.1666 15.4548 12.1354 15.2395 12.1146C15.0242 12.0937 14.8055 12.0833 14.5833 12.0833C14.2221 12.0833 13.868 12.1146 13.5208 12.1771C13.1735 12.2396 12.8402 12.3264 12.5208 12.4375C12.2708 12.5347 12.0659 12.5312 11.9062 12.4271C11.7464 12.3229 11.6666 12.1458 11.6666 11.8958ZM11.6666 9.60415C11.6666 9.47915 11.7117 9.35067 11.802 9.21873C11.8923 9.08679 11.993 8.99998 12.1041 8.95831C12.5069 8.81942 12.9096 8.71526 13.3124 8.64581C13.7152 8.57637 14.1388 8.54165 14.5833 8.54165C14.861 8.54165 15.1353 8.55901 15.4062 8.59373C15.677 8.62845 15.9444 8.67359 16.2083 8.72915C16.3333 8.75692 16.4409 8.82637 16.5312 8.93748C16.6214 9.04859 16.6666 9.17359 16.6666 9.31248C16.6666 9.54859 16.5902 9.7222 16.4374 9.83331C16.2846 9.94442 16.0902 9.9722 15.8541 9.91665C15.6596 9.87498 15.4548 9.84373 15.2395 9.8229C15.0242 9.80206 14.8055 9.79165 14.5833 9.79165C14.2221 9.79165 13.868 9.82637 13.5208 9.89581C13.1735 9.96526 12.8402 10.0555 12.5208 10.1666C12.2708 10.2639 12.0659 10.2569 11.9062 10.1458C11.7464 10.0347 11.6666 9.85415 11.6666 9.60415Z" fill="url(#paint0_linear_25_165)"/>
<defs>
<linearGradient id="paint0_linear_25_165" x1="9.99992" y1="3.33331" x2="9.99992" y2="16.2291" gradientUnits="userSpaceOnUse">
<stop stop-color="#C82CFF"/>
<stop offset="1" stop-color="#9100C3"/>
</linearGradient>
</defs>
</svg>
