<svg width="20" height="20" viewBox="0 0 20 20" fill="none" xmlns="http://www.w3.org/2000/svg">
<path d="M10.0001 18.3334L9.16675 15.8334H3.33341C2.87508 15.8334 2.48272 15.6702 2.15633 15.3438C1.82994 15.0174 1.66675 14.625 1.66675 14.1667V3.33335C1.66675 2.87502 1.82994 2.48266 2.15633 2.15627C2.48272 1.82988 2.87508 1.66669 3.33341 1.66669H8.33341L9.06258 4.16669H16.6667C17.1529 4.16669 17.5522 4.32294 17.8647 4.63544C18.1772 4.94794 18.3334 5.34724 18.3334 5.83335V16.6667C18.3334 17.125 18.1772 17.5174 17.8647 17.8438C17.5522 18.1702 17.1529 18.3334 16.6667 18.3334H10.0001ZM5.95841 12.1667C6.91675 12.1667 7.70494 11.8577 8.323 11.2396C8.94105 10.6215 9.25008 9.81946 9.25008 8.83335C9.25008 8.72224 9.24661 8.62155 9.23966 8.53127C9.23272 8.44099 9.21536 8.34724 9.18758 8.25002H5.89591V9.54169H7.75008C7.63897 9.93058 7.42716 10.2327 7.11466 10.4479C6.80216 10.6632 6.42369 10.7709 5.97925 10.7709C5.43758 10.7709 4.9723 10.5764 4.58341 10.1875C4.19453 9.79863 4.00008 9.31946 4.00008 8.75002C4.00008 8.18058 4.19453 7.70141 4.58341 7.31252C4.9723 6.92363 5.43758 6.72919 5.97925 6.72919C6.22925 6.72919 6.46536 6.77433 6.68758 6.8646C6.9098 6.95488 7.11119 7.0903 7.29175 7.27085L8.31258 6.29169C8.02091 5.98613 7.67022 5.75002 7.2605 5.58335C6.85078 5.41669 6.41675 5.33335 5.95841 5.33335C5.02786 5.33335 4.23272 5.66321 3.573 6.32294C2.91328 6.98266 2.58341 7.79169 2.58341 8.75002C2.58341 9.70835 2.91328 10.5174 3.573 11.1771C4.23272 11.8368 5.02786 12.1667 5.95841 12.1667ZM11.5417 12.5834L12.0001 12.1459C11.8056 11.9097 11.6286 11.6806 11.4688 11.4584C11.3091 11.2361 11.1529 11 11.0001 10.75L11.5417 12.5834ZM12.5834 11.5209C12.9723 11.0625 13.2674 10.625 13.4688 10.2084C13.6702 9.79169 13.8056 9.4653 13.8751 9.22919H10.5626L10.8126 10.1042H11.6459C11.757 10.3125 11.889 10.5382 12.0417 10.7813C12.1945 11.0243 12.3751 11.2709 12.5834 11.5209ZM10.8334 17.5H16.6667C16.9167 17.5 17.1181 17.4202 17.2709 17.2604C17.4237 17.1007 17.5001 16.9028 17.5001 16.6667V5.83335C17.5001 5.58335 17.4237 5.38196 17.2709 5.22919C17.1181 5.07641 16.9167 5.00002 16.6667 5.00002H9.31258L10.2917 8.37502H11.9376V7.50002H12.7917V8.37502H15.8334V9.22919H14.7709C14.632 9.75696 14.4237 10.2709 14.1459 10.7709C13.8681 11.2709 13.5417 11.7361 13.1667 12.1667L15.4376 14.3959L14.8334 15L12.5834 12.75L11.8334 13.5209L12.5001 15.8334L10.8334 17.5Z" fill="url(#paint0_linear_25_173)"/>
<defs>
<linearGradient id="paint0_linear_25_173" x1="10.0001" y1="1.66669" x2="10.0001" y2="18.3334" gradientUnits="userSpaceOnUse">
<stop stop-color="#C82CFF"/>
<stop offset="1" stop-color="#9100C3"/>
</linearGradient>
</defs>
</svg>
