<svg width="130" height="39" viewBox="0 0 130 39" fill="none" xmlns="http://www.w3.org/2000/svg">
<path d="M11.6319 3.39199C13.5199 3.39199 14.9759 3.59999 15.9999 4.01599C17.0239 4.39999 17.9039 4.81599 18.6399 5.26399C19.0239 5.48799 19.3279 5.66399 19.5519 5.79199C19.8079 5.88799 20.0479 5.93599 20.2719 5.93599C20.5919 5.93599 20.8159 5.75999 20.9439 5.40799C21.1039 5.05599 21.2319 4.52799 21.3279 3.82399H22.4319C22.3999 4.43199 22.3519 5.16799 22.2879 6.03199C22.2559 6.86399 22.2239 7.96799 22.1919 9.34399C22.1919 10.72 22.1919 12.528 22.1919 14.768H21.0879C20.9599 13.104 20.5759 11.488 19.9359 9.91999C19.2959 8.35199 18.3839 7.07199 17.1999 6.07999C16.0479 5.05599 14.6239 4.54399 12.9279 4.54399C11.3919 4.54399 10.1279 4.97599 9.13589 5.83999C8.14389 6.70399 7.64789 7.90399 7.64789 9.43999C7.64789 10.72 7.96789 11.824 8.60789 12.752C9.24789 13.648 10.1759 14.528 11.3919 15.392C12.6399 16.256 14.1439 17.296 15.9039 18.512C17.4399 19.504 18.8159 20.496 20.0319 21.488C21.2479 22.48 22.2239 23.6 22.9599 24.848C23.6959 26.096 24.0639 27.584 24.0639 29.312C24.0639 31.424 23.5039 33.168 22.3839 34.544C21.2959 35.92 19.8559 36.96 18.0639 37.664C16.2719 38.336 14.3039 38.672 12.1599 38.672C10.1759 38.672 8.59189 38.48 7.40789 38.096C6.22389 37.712 5.23189 37.312 4.43189 36.896C3.72789 36.448 3.18389 36.224 2.79989 36.224C2.47989 36.224 2.23989 36.4 2.07989 36.752C1.95189 37.104 1.83989 37.632 1.74389 38.336H0.639893C0.703893 37.568 0.735893 36.672 0.735893 35.648C0.767893 34.624 0.783893 33.296 0.783893 31.664C0.815893 30 0.831893 27.904 0.831893 25.376H1.93589C2.06389 27.488 2.41589 29.472 2.99189 31.328C3.59989 33.152 4.51189 34.624 5.72789 35.744C6.97589 36.864 8.62389 37.424 10.6719 37.424C11.7919 37.424 12.7839 37.232 13.6479 36.848C14.5439 36.432 15.2639 35.824 15.8079 35.024C16.3519 34.224 16.6239 33.232 16.6239 32.048C16.6239 30.704 16.3039 29.536 15.6639 28.544C15.0559 27.552 14.2079 26.624 13.1199 25.76C12.0639 24.896 10.8319 24.016 9.42389 23.12C7.91989 22.128 6.51189 21.136 5.19989 20.144C3.88789 19.152 2.83189 18.016 2.03189 16.736C1.26389 15.456 0.879893 13.936 0.879893 12.176C0.879893 10.16 1.37589 8.51199 2.36789 7.23199C3.39189 5.91999 4.71989 4.95999 6.35189 4.35199C8.01589 3.71199 9.77589 3.39199 11.6319 3.39199Z" fill="#0E0E0E"/>
<path d="M33.8071 38.336C32.3671 38.336 31.1671 38.064 30.2071 37.52C29.2471 36.976 28.5431 36.256 28.0951 35.36C27.6471 34.432 27.4231 33.424 27.4231 32.336C27.4231 30.96 27.7271 29.84 28.3351 28.976C28.9751 28.112 29.7911 27.408 30.7831 26.864C31.7751 26.32 32.8151 25.872 33.9031 25.52C35.0231 25.168 36.0791 24.832 37.0711 24.512C38.0951 24.16 38.9111 23.76 39.5191 23.312C40.1591 22.832 40.4791 22.224 40.4791 21.488V17.744C40.4791 16.912 40.3351 16.176 40.0471 15.536C39.7911 14.864 39.3751 14.352 38.7991 14C38.2551 13.648 37.5351 13.472 36.6391 13.472C35.9991 13.472 35.3591 13.568 34.7191 13.76C34.0791 13.92 33.5511 14.208 33.1351 14.624C34.0311 14.944 34.7191 15.44 35.1991 16.112C35.7111 16.752 35.9671 17.488 35.9671 18.32C35.9671 19.408 35.5831 20.272 34.8151 20.912C34.0791 21.552 33.1991 21.872 32.1751 21.872C31.0231 21.872 30.1431 21.52 29.5351 20.816C28.9591 20.08 28.6711 19.2 28.6711 18.176C28.6711 17.248 28.8951 16.48 29.3431 15.872C29.8231 15.264 30.4791 14.688 31.3111 14.144C32.2071 13.632 33.2791 13.232 34.5271 12.944C35.8071 12.656 37.1831 12.512 38.6551 12.512C40.1271 12.512 41.4551 12.672 42.6391 12.992C43.8231 13.28 44.8151 13.824 45.6151 14.624C46.3511 15.36 46.8311 16.272 47.0551 17.36C47.2791 18.416 47.3911 19.76 47.3911 21.392V34.448C47.3911 35.248 47.4711 35.808 47.6311 36.128C47.7911 36.416 48.0631 36.56 48.4471 36.56C48.7351 36.56 49.0071 36.48 49.2631 36.32C49.5511 36.16 49.8551 35.968 50.1751 35.744L50.6551 36.56C49.9831 37.136 49.1991 37.584 48.3031 37.904C47.4391 38.192 46.4631 38.336 45.3751 38.336C44.1911 38.336 43.2471 38.176 42.5431 37.856C41.8391 37.504 41.3271 37.04 41.0071 36.464C40.7191 35.888 40.5751 35.216 40.5751 34.448C39.8071 35.664 38.8791 36.624 37.7911 37.328C36.7031 38 35.3751 38.336 33.8071 38.336ZM37.2151 35.264C37.8551 35.264 38.4311 35.12 38.9431 34.832C39.4871 34.512 39.9991 34 40.4791 33.296V23.456C40.1911 23.936 39.7911 24.368 39.2791 24.752C38.7671 25.136 38.2231 25.536 37.6471 25.952C37.0711 26.336 36.5111 26.768 35.9671 27.248C35.4551 27.728 35.0391 28.32 34.7191 29.024C34.3991 29.728 34.2391 30.576 34.2391 31.568C34.2391 32.816 34.5111 33.744 35.0551 34.352C35.5991 34.96 36.3191 35.264 37.2151 35.264Z" fill="#0E0E0E"/>
<path d="M69.0669 0.463989C70.4109 0.463989 71.5469 0.54399 72.4749 0.703992C73.4349 0.83199 74.2509 1.02399 74.9229 1.27999C75.5949 1.53599 76.2029 1.83999 76.7469 2.19199C77.2909 2.51199 77.7549 2.95999 78.1389 3.53599C78.5229 4.11199 78.7149 4.75199 78.7149 5.45599C78.7149 6.57599 78.3309 7.47199 77.5629 8.14399C76.7949 8.81599 75.6749 9.15199 74.2029 9.15199C72.7949 9.15199 71.6909 8.83199 70.8909 8.19199C70.0909 7.51999 69.6909 6.62399 69.6909 5.50399C69.6909 4.67199 69.9629 3.95199 70.5069 3.34399C71.0829 2.70399 71.8669 2.23999 72.8589 1.95199C72.5389 1.75999 72.0909 1.61599 71.5149 1.51999C70.9709 1.39199 70.3789 1.32799 69.7389 1.32799C68.2669 1.32799 67.0189 1.64799 65.9949 2.28799C65.0029 2.92799 64.2029 3.79199 63.5949 4.87999C63.1469 5.67999 62.8109 6.68799 62.5869 7.90399C62.3949 9.11999 62.2989 10.896 62.2989 13.232H68.0109C69.6749 13.232 71.0989 13.216 72.2829 13.184C73.4669 13.152 74.5229 13.104 75.4509 13.04C76.4109 12.944 77.3549 12.816 78.2829 12.656V33.536C78.2829 34.88 78.5389 35.792 79.0509 36.272C79.5629 36.752 80.4269 36.992 81.6429 36.992V38C81.0029 37.968 80.0429 37.936 78.7629 37.904C77.5149 37.84 76.2509 37.808 74.9709 37.808C73.7229 37.808 72.4589 37.84 71.1789 37.904C69.8989 37.936 68.9389 37.968 68.2989 38V36.992C69.4189 36.992 70.2029 36.752 70.6509 36.272C71.1309 35.792 71.3709 34.88 71.3709 33.536V18.416C71.3709 16.976 71.1309 15.92 70.6509 15.248C70.1709 14.544 69.2909 14.192 68.0109 14.192H62.2989V33.536C62.2989 34.912 62.6349 35.84 63.3069 36.32C63.9789 36.768 64.9229 36.992 66.1389 36.992V38C65.4029 37.968 64.3629 37.936 63.0189 37.904C61.7069 37.84 60.3629 37.808 58.9869 37.808C57.5789 37.808 56.2349 37.84 54.9549 37.904C53.6749 37.936 52.6989 37.968 52.0269 38V36.992C53.2429 36.992 54.1069 36.752 54.6189 36.272C55.1309 35.792 55.3869 34.88 55.3869 33.536V14.192H51.8349V13.232H55.3869C55.3869 11.216 55.7069 9.42399 56.3469 7.85599C56.9869 6.25599 57.9309 4.86399 59.1789 3.67999C60.3309 2.62399 61.7709 1.82399 63.4989 1.27999C65.2589 0.73599 67.1149 0.463989 69.0669 0.463989Z" fill="#0E0E0E"/>
<path d="M100.226 12.512C101.25 12.512 102.082 12.736 102.722 13.184C103.362 13.6 103.826 14.144 104.114 14.816C104.434 15.488 104.594 16.192 104.594 16.928C104.594 18.112 104.242 19.088 103.538 19.856C102.866 20.592 101.97 20.96 100.85 20.96C99.7304 20.96 98.8504 20.688 98.2104 20.144C97.6024 19.568 97.2984 18.816 97.2984 17.888C97.2984 16.992 97.4904 16.256 97.8744 15.68C98.2904 15.072 98.8024 14.56 99.4104 14.144C98.9624 14.016 98.5144 14.032 98.0664 14.192C97.4584 14.288 96.8824 14.544 96.3384 14.96C95.7944 15.344 95.3304 15.84 94.9464 16.448C94.5624 17.024 94.2584 17.664 94.0344 18.368C93.8104 19.04 93.6984 19.696 93.6984 20.336V33.056C93.6984 34.592 94.0664 35.632 94.8024 36.176C95.5704 36.72 96.7064 36.992 98.2104 36.992V38C97.4744 37.968 96.4024 37.936 94.9944 37.904C93.5864 37.84 92.1144 37.808 90.5784 37.808C89.2984 37.808 88.0024 37.84 86.6904 37.904C85.3784 37.936 84.3864 37.968 83.7144 38V36.992C84.8344 36.992 85.6184 36.752 86.0664 36.272C86.5464 35.792 86.7864 34.88 86.7864 33.536V18.416C86.7864 16.976 86.5624 15.92 86.1144 15.248C85.6984 14.544 84.8984 14.192 83.7144 14.192V13.184C84.7384 13.28 85.7304 13.328 86.6904 13.328C88.0344 13.328 89.2824 13.28 90.4344 13.184C91.6184 13.056 92.7064 12.88 93.6984 12.656V17.12C94.0824 16.256 94.5944 15.472 95.2344 14.768C95.8744 14.064 96.6104 13.52 97.4424 13.136C98.2744 12.72 99.2024 12.512 100.226 12.512Z" fill="#0E0E0E"/>
<path d="M112.745 38.336C111.305 38.336 110.105 38.064 109.145 37.52C108.185 36.976 107.481 36.256 107.033 35.36C106.585 34.432 106.361 33.424 106.361 32.336C106.361 30.96 106.665 29.84 107.273 28.976C107.913 28.112 108.729 27.408 109.721 26.864C110.713 26.32 111.753 25.872 112.841 25.52C113.961 25.168 115.017 24.832 116.009 24.512C117.033 24.16 117.849 23.76 118.457 23.312C119.097 22.832 119.417 22.224 119.417 21.488V17.744C119.417 16.912 119.273 16.176 118.985 15.536C118.729 14.864 118.313 14.352 117.737 14C117.193 13.648 116.473 13.472 115.577 13.472C114.937 13.472 114.297 13.568 113.657 13.76C113.017 13.92 112.489 14.208 112.073 14.624C112.969 14.944 113.657 15.44 114.137 16.112C114.649 16.752 114.905 17.488 114.905 18.32C114.905 19.408 114.521 20.272 113.753 20.912C113.017 21.552 112.137 21.872 111.113 21.872C109.961 21.872 109.081 21.52 108.473 20.816C107.897 20.08 107.609 19.2 107.609 18.176C107.609 17.248 107.833 16.48 108.281 15.872C108.761 15.264 109.417 14.688 110.249 14.144C111.145 13.632 112.217 13.232 113.465 12.944C114.745 12.656 116.121 12.512 117.593 12.512C119.065 12.512 120.393 12.672 121.577 12.992C122.761 13.28 123.753 13.824 124.553 14.624C125.289 15.36 125.769 16.272 125.993 17.36C126.217 18.416 126.329 19.76 126.329 21.392V34.448C126.329 35.248 126.409 35.808 126.569 36.128C126.729 36.416 127.001 36.56 127.385 36.56C127.673 36.56 127.945 36.48 128.201 36.32C128.489 36.16 128.793 35.968 129.113 35.744L129.593 36.56C128.921 37.136 128.137 37.584 127.241 37.904C126.377 38.192 125.401 38.336 124.313 38.336C123.129 38.336 122.185 38.176 121.481 37.856C120.777 37.504 120.265 37.04 119.945 36.464C119.657 35.888 119.513 35.216 119.513 34.448C118.745 35.664 117.817 36.624 116.729 37.328C115.641 38 114.313 38.336 112.745 38.336ZM116.153 35.264C116.793 35.264 117.369 35.12 117.881 34.832C118.425 34.512 118.937 34 119.417 33.296V23.456C119.129 23.936 118.729 24.368 118.217 24.752C117.705 25.136 117.161 25.536 116.585 25.952C116.009 26.336 115.449 26.768 114.905 27.248C114.393 27.728 113.977 28.32 113.657 29.024C113.337 29.728 113.177 30.576 113.177 31.568C113.177 32.816 113.449 33.744 113.993 34.352C114.537 34.96 115.257 35.264 116.153 35.264Z" fill="#0E0E0E"/>
</svg>
