<svg width="12" height="19" viewBox="0 0 12 19" fill="none" xmlns="http://www.w3.org/2000/svg">
<path fill-rule="evenodd" clip-rule="evenodd" d="M11.7125 9.03546C12.1 9.44022 12.0952 10.0915 11.7016 10.49L6.62405 15.6329C6.43506 15.8243 6.17988 15.9307 5.91465 15.9285C5.64942 15.9264 5.39587 15.816 5.20979 15.6216L0.287386 10.4787C-0.100072 10.0739 -0.0951217 9.4227 0.298444 9.02417C0.692011 8.62564 1.32516 8.63073 1.71262 9.03554L4.92241 12.3891L4.92241 1.52857C4.92241 0.960507 5.37012 0.5 5.92241 0.5C6.47469 0.5 6.92241 0.960507 6.92241 1.52857L6.92241 12.4436L10.2984 9.02426C10.6919 8.62568 11.325 8.63069 11.7125 9.03546Z" fill="#FAFAFA"/>
<path d="M0 17.4714C0 16.9034 0.447715 16.4429 1 16.4429H11C11.5523 16.4429 12 16.9034 12 17.4714V17.4714C12 18.0395 11.5523 18.5 11 18.5H1C0.447715 18.5 0 18.0395 0 17.4714V17.4714Z" fill="#FAFAFA"/>
</svg>
